<?xml version="1.0" encoding="iso-8859-1"?>
<!-- Generator: Adobe Illustrator 16.0.0, SVG Export Plug-In . SVG Version: 6.00 Build 0)  -->
<!DOCTYPE svg PUBLIC "-//W3C//DTD SVG 1.1//EN" "http://www.w3.org/Graphics/SVG/1.1/DTD/svg11.dtd">
<svg version="1.1" id="Capa_1" xmlns="http://www.w3.org/2000/svg" xmlns:xlink="http://www.w3.org/1999/xlink" x="0px" y="0px"
	 width="969.4px" height="969.399px" viewBox="0 0 969.4 969.399" style="enable-background:new 0 0 969.4 969.399;"
	 xml:space="preserve">
<g>
	<path d="M251.6,727.1c2.1,134.2,112.399,242.5,246.6,242.3c135.9-0.199,246-110.399,246-246.3c0-85.7-43.8-161.2-110.2-205.3l0,0
		v-42.7c0-17.899-12.8-32.899-29.699-36.2H391.5C374.6,442.2,361.8,457.2,361.8,475.1v42.7l0,0C294.3,562.6,250.2,639.8,251.6,727.1
		z M591.9,860.7c3.9-2.601,7.6-5.4,11.2-8.301c39.5-31.8,62.6-79.699,62.6-130.8c0-43.7-17-85.5-47.1-116.6
		c-3.2-3.3-6.601-6.601-10.101-9.601c-7.3-6.399-8-17.399-1.6-24.699c6.4-7.301,17.4-8,24.7-1.601c44,38.601,69.2,94.2,69.2,152.601
		c0,67.399-33.4,130.3-89.301,168.1c-3,2-6.399,3-9.8,3c-5.6,0-11.1-2.7-14.5-7.7C581.9,877,583.9,866.1,591.9,860.7z M430.6,483.5
		h134.7c6.899,0,12.5,5.6,12.5,12.5c0,6.899-5.601,12.5-12.5,12.5H430.6c-6.9,0-12.5-5.601-12.5-12.5
		C418.1,489.1,423.7,483.5,430.6,483.5z"/>
	<path d="M337,387.3c0.801-1.8,1.7-3.5,2.801-5.2l130.5-201.6L353.5,0H86.4L337,387.3z"/>
	<path d="M616,1.5l-130.8,202L360.8,395.7c-3.2,5-2.2,10.899,1.399,14.699c2.101,2.2,5.101,3.601,8.5,3.601h238.9
		c4,0,7.8-2,9.899-5.4L883,1.5H616z"/>
</g>
<g>
</g>
<g>
</g>
<g>
</g>
<g>
</g>
<g>
</g>
<g>
</g>
<g>
</g>
<g>
</g>
<g>
</g>
<g>
</g>
<g>
</g>
<g>
</g>
<g>
</g>
<g>
</g>
<g>
</g>
</svg>
