<?xml version="1.0" encoding="UTF-8" standalone="no"?>
<!-- Created with Inkscape (http://www.inkscape.org/) -->
<svg
   xmlns:dc="http://purl.org/dc/elements/1.1/"
   xmlns:cc="http://creativecommons.org/ns#"
   xmlns:rdf="http://www.w3.org/1999/02/22-rdf-syntax-ns#"
   xmlns:svg="http://www.w3.org/2000/svg"
   xmlns="http://www.w3.org/2000/svg"
   xmlns:sodipodi="http://sodipodi.sourceforge.net/DTD/sodipodi-0.dtd"
   xmlns:inkscape="http://www.inkscape.org/namespaces/inkscape"
   width="342.96738"
   height="395.76617"
   id="svg3029"
   sodipodi:version="0.32"
   inkscape:version="0.46"
   version="1.0"
   sodipodi:docname="PURPLE SEAL.svg"
   inkscape:output_extension="org.inkscape.output.svg.inkscape">
  <defs
     id="defs3031">
    <inkscape:perspective
       sodipodi:type="inkscape:persp3d"
       inkscape:vp_x="0 : 526.18109 : 1"
       inkscape:vp_y="0 : 1000 : 0"
       inkscape:vp_z="744.09448 : 526.18109 : 1"
       inkscape:persp3d-origin="372.04724 : 350.78739 : 1"
       id="perspective3037" />
    <inkscape:perspective
       id="perspective93"
       inkscape:persp3d-origin="200 : 133.33333 : 1"
       inkscape:vp_z="400 : 200 : 1"
       inkscape:vp_y="0 : 1000 : 0"
       inkscape:vp_x="0 : 200 : 1"
       sodipodi:type="inkscape:persp3d" />
  </defs>
  <sodipodi:namedview
     id="base"
     pagecolor="#ffffff"
     bordercolor="#666666"
     borderopacity="1.0"
     gridtolerance="10000"
     guidetolerance="10"
     objecttolerance="10"
     inkscape:pageopacity="0.0"
     inkscape:pageshadow="2"
     inkscape:zoom="0.7"
     inkscape:cx="232.56991"
     inkscape:cy="156.34508"
     inkscape:document-units="px"
     inkscape:current-layer="layer1"
     showgrid="false"
     inkscape:window-width="640"
     inkscape:window-height="669"
     inkscape:window-x="46"
     inkscape:window-y="46" />
  <metadata
     id="metadata3034">
    <rdf:RDF>
      <cc:Work
         rdf:about="">
        <dc:format>image/svg+xml</dc:format>
        <dc:type
           rdf:resource="http://purl.org/dc/dcmitype/StillImage" />
      </cc:Work>
    </rdf:RDF>
  </metadata>
  <g
     inkscape:label="Layer 1"
     inkscape:groupmode="layer"
     id="layer1"
     transform="translate(-234.2853,-334.47909)">
    <g
       style="fill:#ffffff;fill-opacity:1"
       id="fleur_de_lis"
       transform="matrix(1.1750653,0,0,1.1750653,170.40755,285.4102)">
	<path
   d="M 242.851,264.746 C 253.851,265.238 260.818,256.806 262.743,245.982 C 249.441,252.204 237.88,243.336 235.116,232.12 C 230.755,233.008 225.819,233.728 220.47,234.258 C 223.313,247.093 228.742,264.114 242.851,264.746 z"
   style="fill:#ffffff;fill-opacity:1"
   id="path5" />

	<path
   d="M 137.458,245.982 C 139.383,256.805 146.351,265.238 157.354,264.746 C 171.448,264.114 176.878,247.123 179.725,234.291 C 174.379,233.776 169.439,233.066 165.065,232.19 C 162.27,243.372 150.732,252.191 137.458,245.982 z"
   style="fill:#ffffff;fill-opacity:1"
   id="path7" />

	<ellipse
   cx="199.91701"
   cy="221.75101"
   rx="42.978001"
   ry="6.1030002"
   style="fill:#ffffff;fill-opacity:0;stroke:#ffffff;stroke-width:3.79999995;stroke-opacity:1"
   id="ellipse9"
   sodipodi:cx="199.91701"
   sodipodi:cy="221.75101"
   sodipodi:rx="42.978001"
   sodipodi:ry="6.1030002" />

	<g
   style="fill:#ffffff;fill-opacity:1"
   id="g11">
		<g
   style="fill:#ffffff;fill-opacity:1"
   id="g13">
			<path
   d="M 133.971,143.507 C 109.216,139.03 91.068,159.185 91.351,180.261 C 91.603,199.078 103.885,214.429 125.197,213.636 C 123.458,203.038 127.629,193.569 135.643,190.823 C 150.422,185.761 159.593,199.873 162.686,211.915 C 167.636,210.804 173.427,209.913 179.794,209.303 C 175.574,179.824 161.791,148.539 133.971,143.507 z M 120.404,176.331 L 118.823,185.745 L 114.571,177.209 L 105.137,178.604 L 111.942,171.923 L 107.692,163.39 L 116.147,167.792 L 122.951,161.109 L 121.386,170.516 L 129.844,174.92 L 120.404,176.331 z"
   style="fill:#ffffff;fill-opacity:1"
   id="path15" />

		</g>

	</g>

	<g
   style="fill:#ffffff;fill-opacity:1"
   id="g17">
		<g
   style="fill:#ffffff;fill-opacity:1"
   id="g19">
			<path
   d="M 308.111,175.192 C 306.353,157.988 289.778,140.911 268.833,143.506 C 238.249,147.298 224.363,178.878 220.075,209.345 C 226.435,209.971 232.206,210.879 237.127,212.005 C 238.932,197.84 255.317,182.641 268.833,193.357 C 273.843,197.33 275.714,205.792 274.684,214.059 C 297.938,213.534 310.314,196.772 308.111,175.192 z M 285.063,176.231 L 283.482,185.645 L 279.23,177.109 L 269.798,178.505 L 276.601,171.823 L 272.353,163.29 L 280.807,167.691 L 287.61,161.009 L 286.047,170.415 L 294.505,174.82 L 285.063,176.231 z"
   style="fill:#ffffff;fill-opacity:1"
   id="path21" />

		</g>

	</g>

	<path
   d="M 199.929,109.037 C 199.927,109.008 199.926,108.979 199.923,108.95 L 199.936,108.943 C 199.934,108.974 199.932,109.004 199.929,109.037 C 203.607,161.387 203.018,204.091 202.949,208.303 C 207.559,208.368 212.015,208.579 216.246,208.918 C 217.081,193.816 228.127,171.046 228.127,171.046 C 241.236,146.035 240.084,132.925 240.084,132.925 C 239.45,104.981 214.327,90.319 214.327,90.319 C 206.842,84.9 199.961,77.656 199.927,77.622 C 199.825,77.729 192.981,84.92 185.533,90.312 C 185.533,90.312 160.41,104.973 159.776,132.917 C 159.776,132.917 158.624,146.027 171.733,171.038 C 171.733,171.038 182.779,193.806 183.614,208.908 C 187.845,208.571 192.302,208.363 196.912,208.3 C 196.842,204.116 196.251,161.403 199.929,109.037 z"
   style="fill:#ffffff;fill-opacity:1"
   id="path23" />

	<path
   d="M 200.173,270.278 L 200.137,270.281 C 197.477,256.841 197.406,239.063 197.421,235.41 C 192.446,235.355 187.651,235.128 183.118,234.756 C 180.274,253.152 170.187,265.541 170.187,265.541 C 180.52,285.809 200.136,293.52 200.136,293.52 L 200.172,293.517 C 200.172,293.517 219.788,285.805 230.121,265.538 C 230.121,265.538 220.017,253.129 217.185,234.707 C 212.657,235.094 207.865,235.336 202.887,235.404 C 202.905,239.047 202.833,256.833 200.173,270.278 z"
   style="fill:#ffffff;fill-opacity:1"
   id="path25" />

</g>
    <g
       style="fill:#ffffff;fill-opacity:1"
       id="rope"
       transform="matrix(1.1750653,0,0,1.1750653,170.40755,285.4102)">
	<g
   style="fill:#ffffff;fill-opacity:1"
   id="g28">
		<path
   d="M 101.747,295.277 C 101.747,295.277 103.304,295.455 104.165,295.106 C 104.862,294.936 106.073,294.066 106.941,293.548 C 107.631,293.197 108.327,292.326 109.363,291.984 C 109.363,291.984 110.747,291.641 112.139,291.812 C 108.498,288.689 105.033,285.561 101.915,282.092 L 101.915,282.267 C 100.701,281.913 99.143,282.267 99.143,282.267 C 98.104,282.437 97.235,283.134 96.545,283.65 C 95.848,284.003 94.462,284.693 93.769,284.871 C 92.904,285.043 91.168,284.693 91.168,284.693 C 94.462,288.336 97.932,291.812 101.566,295.277 L 101.747,295.277 L 101.747,295.277 z"
   style="fill:#ffffff;fill-opacity:1;fill-rule:evenodd"
   id="path30" />

		<path
   d="M 116.633,307.2 C 116.633,307.2 118.197,307.028 119.062,306.683 C 119.754,306.336 120.797,305.469 121.488,304.78 C 122.184,304.259 122.699,303.393 123.743,302.871 C 123.743,302.871 125.129,302.353 126.511,302.353 C 122.528,299.754 118.715,297.157 115.074,294.212 L 115.074,294.391 C 113.863,294.212 112.479,294.563 112.479,294.563 C 111.265,294.91 110.575,295.776 110.05,296.292 C 109.188,296.812 107.977,297.68 107.28,297.851 C 106.412,298.198 104.855,298.026 104.855,298.026 C 108.492,301.314 112.479,304.259 116.461,307.201 L 116.633,307.201 L 116.633,307.2 z"
   style="fill:#ffffff;fill-opacity:1;fill-rule:evenodd"
   id="path32" />

		<path
   d="M 132.916,317.079 C 132.916,317.079 134.474,316.725 135.344,316.383 C 135.862,315.864 136.901,314.824 137.419,314.129 C 138.115,313.439 138.46,312.57 139.503,311.88 C 139.503,311.88 140.714,311.184 142.1,311.013 C 137.77,309.11 133.606,306.856 129.623,304.436 L 129.797,304.436 C 128.411,304.607 127.025,305.126 127.025,305.126 C 125.989,305.647 125.466,306.51 124.949,307.206 C 124.252,307.726 123.213,308.765 122.523,309.109 C 121.654,309.454 120.096,309.625 120.096,309.625 C 124.081,312.227 128.411,314.824 132.746,317.079 L 132.916,317.079 L 132.916,317.079 z"
   style="fill:#ffffff;fill-opacity:1;fill-rule:evenodd"
   id="path34" />

		<path
   d="M 150.406,324.693 C 150.406,324.693 151.969,324.35 152.659,323.656 C 153.184,323.135 154.046,322.097 154.571,321.234 C 154.913,320.538 155.261,319.499 156.3,318.809 C 156.3,318.809 157.341,317.939 158.727,317.594 C 154.218,316.209 149.715,314.477 145.559,312.57 L 145.559,312.749 C 144.349,312.92 143.134,313.609 143.134,313.609 C 142.095,314.305 141.747,315.342 141.226,316.036 C 140.537,316.725 139.668,317.767 138.979,318.291 C 138.282,318.81 136.725,318.979 136.725,318.979 C 141.054,321.234 145.559,323.135 150.235,324.869 L 150.406,324.693 L 150.406,324.693 z"
   style="fill:#ffffff;fill-opacity:1;fill-rule:evenodd"
   id="path36" />

		<path
   d="M 261.951,319.849 C 261.951,319.849 262.639,318.464 262.813,317.595 C 262.813,316.901 262.638,315.343 262.466,314.478 C 262.294,313.61 261.776,312.749 261.776,311.537 C 261.776,311.537 262.123,310.151 262.638,308.936 C 258.481,311.184 254.326,313.095 249.989,314.825 C 249.302,315.865 248.777,317.251 248.777,317.251 C 248.43,318.639 248.607,319.153 248.607,320.197 C 248.777,321.057 248.43,322.623 248.26,323.313 C 248.087,324.179 247.389,325.91 247.389,325.91 C 251.901,324.351 257.443,322.098 261.951,320.019 L 261.951,319.849 L 261.951,319.849 z"
   style="fill:#ffffff;fill-opacity:1;fill-rule:evenodd"
   id="path38" />

		<path
   d="M 278.58,310.842 C 278.58,310.842 279.267,309.282 279.267,308.242 C 279.095,307.553 278.75,306.165 278.397,305.297 C 278.053,304.607 277.537,303.74 277.537,302.525 C 277.537,302.525 277.537,300.968 278.054,299.755 C 274.072,302.525 270.086,304.951 266.102,307.206 L 266.274,307.206 C 265.578,308.42 265.408,309.807 265.408,309.807 C 265.408,311.013 265.926,311.88 266.102,312.749 C 266.274,313.609 266.618,314.996 266.618,315.864 C 266.447,316.725 265.75,318.113 265.75,318.113 C 270.085,316.036 274.413,313.609 278.58,310.842 L 278.58,310.842 z"
   style="fill:#ffffff;fill-opacity:1;fill-rule:evenodd"
   id="path40" />

		<path
   d="M 293.991,299.409 C 293.991,299.409 294.337,297.85 294.337,296.982 C 294.164,296.292 293.467,294.91 293.123,294.041 C 292.779,293.352 291.91,292.655 291.736,291.441 C 291.736,291.441 291.736,290.056 291.91,288.67 C 288.442,291.792 284.805,294.909 281.165,297.679 L 281.165,297.507 C 280.816,298.893 280.816,300.278 280.816,300.278 C 280.816,301.486 281.513,302.353 281.858,303.049 C 282.203,303.911 282.729,305.296 282.729,305.993 C 282.729,306.854 282.203,308.414 282.203,308.414 C 286.365,305.811 290.179,302.698 293.991,299.582 L 293.991,299.409 L 293.991,299.409 z"
   style="fill:#ffffff;fill-opacity:1;fill-rule:evenodd"
   id="path42" />

		<path
   d="M 307.849,286.243 C 307.849,286.243 308.022,284.686 307.668,283.825 C 307.496,283.13 306.634,281.914 306.108,281.052 C 305.766,280.356 304.898,279.84 304.551,278.625 C 304.551,278.625 304.207,277.238 304.379,275.857 C 301.255,279.492 298.14,282.956 294.845,286.069 C 294.674,287.284 294.845,288.843 294.845,288.843 C 295.019,290.056 295.714,290.748 296.232,291.441 C 296.582,292.307 297.272,293.522 297.449,294.212 C 297.62,295.08 297.272,296.811 297.272,296.811 C 300.914,293.522 304.551,290.056 307.848,286.422 L 307.848,286.243 L 307.849,286.243 z"
   style="fill:#ffffff;fill-opacity:1;fill-rule:evenodd"
   id="path44" />

		<path
   d="M 319.795,271.354 C 319.795,271.354 319.795,269.796 319.277,268.928 C 319.105,268.239 318.066,267.199 317.541,266.501 C 316.852,265.812 315.982,265.294 315.463,264.254 C 315.463,264.254 314.943,262.867 314.943,261.481 C 312.516,265.465 309.744,269.272 306.798,272.912 L 306.973,272.912 C 306.798,274.123 307.145,275.681 307.145,275.681 C 307.49,276.726 308.358,277.416 308.875,278.111 C 309.4,278.799 310.261,280.013 310.609,280.703 C 310.784,281.573 310.784,283.132 310.784,283.132 C 313.899,279.494 317.02,275.511 319.794,271.528 L 319.794,271.354 L 319.795,271.354 z"
   style="fill:#ffffff;fill-opacity:1;fill-rule:evenodd"
   id="path46" />

		<path
   d="M 329.665,255.072 C 329.665,255.072 329.32,253.512 328.968,252.651 C 328.452,252.13 327.408,251.092 326.724,250.571 C 326.198,250.053 325.165,249.528 324.469,248.495 C 324.469,248.495 323.773,247.28 323.601,245.898 C 321.696,250.224 319.442,254.381 317.016,258.359 L 317.188,258.187 C 317.188,259.573 317.708,260.958 317.708,260.958 C 318.231,261.999 319.271,262.517 319.788,263.038 C 320.485,263.728 321.347,264.77 321.696,265.464 C 322.215,266.329 322.215,267.884 322.215,267.884 C 324.986,263.901 327.409,259.572 329.666,255.24 L 329.666,255.072 L 329.665,255.072 z"
   style="fill:#ffffff;fill-opacity:1;fill-rule:evenodd"
   id="path48" />

		<path
   d="M 337.808,237.753 C 337.808,237.753 337.284,236.195 336.765,235.499 C 336.422,234.813 335.208,233.944 334.511,233.425 C 333.823,232.902 332.953,232.559 332.259,231.516 C 332.259,231.516 331.395,230.311 331.222,228.923 C 329.488,233.425 327.409,237.583 325.33,241.739 C 325.501,242.951 326.197,244.34 326.197,244.34 C 326.716,245.372 327.756,245.716 328.275,246.411 C 328.967,246.93 330.01,247.971 330.355,248.667 C 330.872,249.357 331.05,251.087 331.05,251.087 C 333.47,246.758 335.723,242.429 337.807,237.929 L 337.807,237.753 L 337.808,237.753 z"
   style="fill:#ffffff;fill-opacity:1;fill-rule:evenodd"
   id="path50" />

		<path
   d="M 342.653,219.396 C 342.653,219.396 341.964,217.837 341.439,217.142 C 340.748,216.797 339.537,216.102 338.669,215.583 C 337.979,215.239 336.94,215.068 336.067,214.372 C 336.067,214.372 335.027,213.157 334.509,211.945 C 333.642,216.626 332.602,221.297 331.385,225.629 C 331.734,226.843 332.772,228.056 332.772,228.056 C 333.469,228.916 334.509,229.094 335.199,229.613 C 336.067,230.131 337.282,230.828 337.8,231.343 C 338.322,232.038 338.84,233.596 338.84,233.596 C 340.4,229.094 341.61,224.243 342.826,219.396 L 342.653,219.396 L 342.653,219.396 z"
   style="fill:#ffffff;fill-opacity:1;fill-rule:evenodd"
   id="path52" />

		<path
   d="M 345.595,200.515 C 345.595,200.515 344.735,199.129 344.036,198.614 C 343.35,198.093 341.957,197.572 341.095,197.4 C 340.401,197.057 339.361,197.057 338.318,196.36 C 338.318,196.36 337.284,195.496 336.588,194.283 C 336.243,198.957 335.892,203.635 335.201,208.309 L 335.201,208.138 C 335.72,209.349 336.76,210.389 336.76,210.389 C 337.802,211.256 338.842,211.256 339.531,211.6 C 340.401,211.947 341.611,212.644 342.308,213.159 C 342.997,213.678 343.693,215.235 343.693,215.235 C 344.562,210.389 345.254,205.541 345.778,200.515 L 345.595,200.515 L 345.595,200.515 z"
   style="fill:#ffffff;fill-opacity:1;fill-rule:evenodd"
   id="path54" />

		<path
   d="M 346.118,181.466 C 346.118,181.466 345.079,180.079 344.211,179.736 C 343.522,179.386 342.136,179.042 341.267,178.867 C 340.401,178.696 339.361,178.867 338.318,178.349 C 338.318,178.349 337.106,177.484 336.243,176.445 C 336.588,181.122 336.76,185.796 336.76,190.471 L 336.76,190.299 C 337.457,191.51 338.671,192.379 338.671,192.379 C 339.531,193.071 340.572,193.071 341.441,193.244 C 342.309,193.415 343.694,193.937 344.385,194.28 C 345.08,194.801 345.949,196.187 345.949,196.187 C 346.291,191.339 346.291,186.486 346.118,181.466 L 346.118,181.466 z"
   style="fill:#ffffff;fill-opacity:1;fill-rule:evenodd"
   id="path56" />

		<path
   d="M 344.036,162.416 C 344.036,162.416 342.827,161.375 341.964,161.029 C 341.267,160.686 339.71,160.686 338.841,160.511 C 337.972,160.511 336.934,160.858 335.898,160.337 C 335.898,160.337 334.511,159.818 333.644,158.779 C 334.685,163.453 335.375,168.131 335.898,172.633 L 335.898,172.462 C 336.759,173.502 337.972,174.194 337.972,174.194 C 339.185,174.888 340.227,174.712 340.925,174.712 C 341.964,174.888 343.351,175.231 344.036,175.578 C 344.734,175.924 345.948,177.139 345.948,177.139 C 345.594,172.286 344.908,167.438 344.036,162.588 L 344.036,162.416 L 344.036,162.416 z"
   style="fill:#ffffff;fill-opacity:1;fill-rule:evenodd"
   id="path58" />

		<path
   d="M 339.367,143.881 C 339.367,143.881 338.15,143.016 337.283,142.673 C 336.416,142.498 335.028,142.673 334.166,142.673 C 333.299,142.844 332.259,143.192 331.215,142.844 C 331.215,142.844 329.83,142.498 328.616,141.632 C 330.355,146.132 331.74,150.638 332.773,155.14 L 332.773,154.969 C 333.816,155.833 335.2,156.351 335.2,156.351 C 336.242,156.872 337.283,156.523 338.15,156.523 C 339.013,156.523 340.405,156.698 341.094,156.873 C 341.963,157.217 343.35,158.26 343.35,158.26 C 342.307,153.41 341.094,148.733 339.537,143.881 L 339.367,143.881 L 339.367,143.881 z"
   style="fill:#ffffff;fill-opacity:1;fill-rule:evenodd"
   id="path60" />

		<path
   d="M 332.609,126.045 C 332.609,126.045 331.05,125.352 330.182,125.18 C 329.487,125.18 327.928,125.352 327.066,125.697 C 326.371,125.872 325.33,126.391 324.116,126.217 C 324.116,126.217 322.732,125.872 321.519,125.352 C 323.772,129.507 325.673,133.839 327.408,138.166 L 327.408,137.994 C 328.452,138.687 329.84,139.03 329.84,139.03 C 331.051,139.381 332.085,138.859 332.78,138.859 C 333.823,138.687 335.208,138.512 335.897,138.687 C 336.764,138.859 338.15,139.895 338.15,139.895 C 336.593,135.224 334.684,130.719 332.609,126.216 L 332.609,126.045 L 332.609,126.045 z"
   style="fill:#ffffff;fill-opacity:1;fill-rule:evenodd"
   id="path62" />

		<path
   d="M 323.426,109.396 C 323.426,109.396 321.867,108.703 321,108.878 C 320.139,108.878 318.746,109.222 317.883,109.571 C 317.188,109.916 316.324,110.436 315.115,110.436 C 315.115,110.436 313.728,110.436 312.341,109.915 C 315.115,113.906 317.541,117.897 319.787,121.885 C 321,122.407 322.385,122.58 322.385,122.58 C 323.601,122.752 324.469,122.06 325.337,121.885 C 326.197,121.713 327.586,121.364 328.452,121.364 C 329.32,121.539 330.708,122.233 330.708,122.233 C 328.624,117.897 326.197,113.558 323.426,109.396 L 323.426,109.396 z"
   style="fill:#ffffff;fill-opacity:1;fill-rule:evenodd"
   id="path64" />

		<path
   d="M 312.17,94.003 C 312.17,94.003 310.441,93.659 309.571,93.83 C 308.882,93.83 307.49,94.523 306.799,94.869 C 305.933,95.388 305.242,96.081 304.029,96.253 C 304.029,96.253 302.643,96.426 301.256,96.081 C 304.546,99.545 307.49,103.181 310.27,106.818 L 310.096,106.818 C 311.475,107.163 312.866,107.163 312.866,107.163 C 314.083,107.163 314.944,106.469 315.639,106.125 C 316.5,105.776 317.883,105.433 318.58,105.26 C 319.625,105.26 321.182,105.777 321.182,105.777 C 318.408,101.796 315.457,97.812 312.17,94.003 L 312.17,94.003 z"
   style="fill:#ffffff;fill-opacity:1;fill-rule:evenodd"
   id="path66" />

		<path
   d="M 298.838,80.171 C 298.838,80.171 297.273,79.997 296.411,80.342 C 295.715,80.515 294.503,81.381 293.636,81.898 C 292.946,82.246 292.428,83.111 291.215,83.455 C 291.215,83.455 289.829,83.8 288.436,83.627 C 292.078,86.74 295.543,89.853 298.66,93.312 L 298.66,93.139 C 300.047,93.484 301.439,93.139 301.439,93.139 C 302.644,92.967 303.34,92.273 304.038,91.756 C 304.899,91.409 306.109,90.715 306.807,90.544 C 307.844,90.371 309.407,90.716 309.407,90.716 C 306.11,87.087 302.645,83.629 299.013,80.173 L 298.838,80.173 L 298.838,80.171 z"
   style="fill:#ffffff;fill-opacity:1;fill-rule:evenodd"
   id="path68" />

		<path
   d="M 284.115,68.198 C 284.115,68.198 282.382,68.371 281.513,68.719 C 280.816,69.064 279.784,69.932 279.087,70.62 C 278.396,71.142 277.876,72.007 276.832,72.527 C 276.832,72.527 275.45,73.048 274.062,73.048 C 278.046,75.642 281.857,78.243 285.498,81.185 L 285.498,81.014 C 286.884,81.185 288.269,80.84 288.269,80.84 C 289.31,80.492 290,79.627 290.696,79.107 C 291.391,78.586 292.597,77.721 293.293,77.549 C 294.163,77.204 295.72,77.377 295.72,77.377 C 292.083,74.085 288.271,71.142 284.115,68.198 L 284.115,68.198 z"
   style="fill:#ffffff;fill-opacity:1;fill-rule:evenodd"
   id="path70" />

		<path
   d="M 267.659,58.326 C 267.659,58.326 266.1,58.671 265.406,59.019 C 264.716,59.539 263.675,60.577 263.157,61.27 C 262.632,61.963 262.117,62.827 261.074,63.521 C 261.074,63.521 259.862,64.212 258.476,64.389 C 262.807,66.292 266.969,68.541 270.955,70.968 L 270.783,70.968 C 272.169,70.792 273.553,70.276 273.553,70.276 C 274.594,69.755 275.11,68.889 275.628,68.197 C 276.325,67.677 277.363,66.635 278.053,66.292 C 278.923,65.947 280.48,65.77 280.48,65.77 L 280.652,65.77 C 276.497,63.176 272.17,60.576 267.833,58.325 L 267.659,58.325 L 267.659,58.326 z"
   style="fill:#ffffff;fill-opacity:1;fill-rule:evenodd"
   id="path72" />

		<path
   d="M 250.342,50.706 C 250.342,50.706 248.608,51.051 248.088,51.745 C 247.39,52.265 246.529,53.306 246.012,54.171 C 245.662,54.864 245.319,55.9 244.448,56.594 C 244.448,56.594 243.237,57.459 242.021,57.807 C 246.53,59.194 250.862,60.924 255.017,62.829 L 255.017,62.657 C 256.229,62.482 257.615,61.792 257.615,61.792 C 258.482,61.095 259.001,60.059 259.526,59.366 C 260.041,58.673 260.911,57.637 261.601,57.115 C 262.295,56.595 264.026,56.424 264.026,56.424 C 259.526,54.173 255.017,52.266 250.342,50.536 L 250.342,50.706 L 250.342,50.706 z"
   style="fill:#ffffff;fill-opacity:1;fill-rule:evenodd"
   id="path74" />

		<path
   d="M 231.984,45.334 C 231.984,45.334 230.421,46.028 229.903,46.721 C 229.383,47.241 228.689,48.453 228.344,49.321 C 228,50.012 227.819,51.051 226.958,51.915 C 226.958,51.915 225.918,52.957 224.701,53.477 C 229.206,54.342 233.886,55.38 238.389,56.765 L 238.216,56.593 C 239.429,56.245 240.643,55.38 240.643,55.38 C 241.511,54.515 241.855,53.477 242.207,52.783 C 242.722,52.092 243.411,50.877 244.109,50.357 C 244.628,49.665 246.364,49.148 246.364,49.148 C 241.683,47.587 236.831,46.377 231.983,45.163 L 231.983,45.334 L 231.984,45.334 z"
   style="fill:#ffffff;fill-opacity:1;fill-rule:evenodd"
   id="path76" />

		<path
   d="M 213.104,42.392 C 213.104,42.392 211.718,43.257 211.2,43.95 C 210.679,44.643 210.333,46.029 209.988,46.893 C 209.635,47.587 209.635,48.627 208.945,49.665 C 208.945,49.665 208.079,50.706 206.866,51.4 C 211.719,51.745 216.22,52.092 220.902,52.784 L 220.725,52.784 C 221.942,52.264 222.982,51.223 222.982,51.223 C 223.842,50.357 223.842,49.321 224.195,48.454 C 224.539,47.587 225.229,46.377 225.755,45.683 C 226.27,45.162 227.826,44.298 227.826,44.298 C 222.982,43.433 218.129,42.74 213.276,42.392 L 213.104,42.392 L 213.104,42.392 z"
   style="fill:#ffffff;fill-opacity:1;fill-rule:evenodd"
   id="path78" />

		<path
   d="M 194.05,42.046 C 194.05,42.046 192.664,43.084 192.318,43.778 C 191.975,44.469 191.625,45.856 191.45,46.72 C 191.278,47.585 191.45,48.626 190.934,49.663 C 190.934,49.663 190.067,50.876 189.023,51.743 C 193.703,51.395 198.557,51.222 203.059,51.395 L 203.059,51.222 C 204.099,50.53 204.966,49.32 204.966,49.32 C 205.655,48.449 205.655,47.414 205.831,46.549 C 206.18,45.679 206.524,44.298 207.043,43.605 C 207.568,42.913 208.779,42.046 208.779,42.046 L 208.95,42.046 C 203.926,41.699 199.074,41.699 194.049,41.872 L 194.049,42.046 L 194.05,42.046 z"
   style="fill:#ffffff;fill-opacity:1;fill-rule:evenodd"
   id="path80" />

		<path
   d="M 174.995,44.122 C 174.995,44.122 173.962,45.163 173.612,46.028 C 173.441,46.721 173.266,48.279 173.266,49.147 C 173.094,50.012 173.441,51.05 172.922,52.091 C 172.922,52.091 172.404,53.476 171.364,54.341 C 176.038,53.476 180.719,52.608 185.218,52.091 C 186.261,51.222 186.956,50.011 186.956,50.011 C 187.472,48.97 187.3,47.934 187.472,47.065 C 187.472,46.2 187.819,44.642 188.17,43.948 C 188.516,43.255 189.726,42.045 189.726,42.045 C 184.875,42.562 180.022,43.083 175.176,43.948 L 174.995,44.122 L 174.995,44.122 z"
   style="fill:#ffffff;fill-opacity:1;fill-rule:evenodd"
   id="path82" />

		<path
   d="M 156.465,48.627 C 156.465,48.627 155.598,49.84 155.426,50.706 C 155.254,51.572 155.254,52.957 155.254,53.822 C 155.426,54.687 155.775,55.729 155.426,56.765 C 155.426,56.765 155.079,58.326 154.217,59.365 C 158.719,57.636 163.222,56.422 167.727,55.207 L 167.556,55.207 C 168.425,54.17 169.115,52.957 169.115,52.957 C 169.458,51.744 169.115,50.706 169.115,50.012 C 169.115,48.971 169.287,47.586 169.458,46.892 C 169.812,46.028 170.851,44.816 170.851,44.816 C 165.998,45.682 161.319,46.892 156.637,48.453 L 156.465,48.627 L 156.465,48.627 z"
   style="fill:#ffffff;fill-opacity:1;fill-rule:evenodd"
   id="path84" />

		<path
   d="M 138.806,55.555 C 138.806,55.555 137.936,56.941 137.936,57.805 C 137.762,58.499 138.108,60.056 138.281,60.922 C 138.452,61.79 138.978,62.655 138.806,63.868 C 138.806,63.868 138.624,65.251 137.936,66.464 C 142.093,64.213 146.427,62.307 150.757,60.577 L 150.586,60.577 C 151.273,59.535 151.797,58.15 151.797,58.15 C 151.968,56.941 151.625,56.076 151.455,55.206 C 151.273,54.341 151.273,52.783 151.455,52.091 C 151.455,51.224 152.487,49.84 152.487,49.84 C 147.814,51.399 143.304,53.304 138.806,55.38 L 138.806,55.555 L 138.806,55.555 z"
   style="fill:#ffffff;fill-opacity:1;fill-rule:evenodd"
   id="path86" />

		<path
   d="M 122.006,64.561 C 122.006,64.561 121.483,66.12 121.483,67.158 C 121.483,67.849 122.006,69.235 122.178,70.103 C 122.522,70.793 123.219,71.663 123.219,72.872 C 123.219,72.872 123.043,74.433 122.694,75.643 C 126.511,72.872 130.503,70.449 134.665,68.198 L 134.494,68.198 C 135.019,66.985 135.19,65.6 135.19,65.6 C 135.362,64.387 134.847,63.522 134.666,62.655 C 134.322,61.79 133.979,60.406 134.15,59.538 C 134.15,58.67 134.847,57.289 134.847,57.289 C 130.503,59.364 126.166,61.791 122.006,64.561 L 122.006,64.561 z"
   style="fill:#ffffff;fill-opacity:1;fill-rule:evenodd"
   id="path88" />

		<path
   d="M 106.572,75.992 C 106.572,75.992 106.222,77.55 106.395,78.417 C 106.572,79.111 107.089,80.496 107.607,81.361 C 107.959,82.053 108.646,82.746 108.818,83.956 C 108.818,83.956 108.999,85.343 108.646,86.727 C 112.115,83.439 115.756,80.495 119.565,77.721 L 119.393,77.898 C 119.913,76.511 119.737,75.127 119.737,75.127 C 119.737,73.913 119.05,73.049 118.872,72.355 C 118.526,71.491 118.008,70.104 117.836,69.412 C 117.836,68.546 118.355,66.986 118.355,66.986 C 114.37,69.586 110.382,72.528 106.573,75.82 L 106.573,75.992 L 106.572,75.992 z"
   style="fill:#ffffff;fill-opacity:1;fill-rule:evenodd"
   id="path90" />

		<path
   d="M 92.905,89.153 C 92.905,89.153 92.733,90.711 92.905,91.578 C 93.079,92.268 93.948,93.483 94.463,94.349 C 94.988,95.041 95.684,95.561 96.028,96.772 C 96.028,96.772 96.374,98.156 96.202,99.543 C 99.322,95.906 102.625,92.443 105.92,89.327 L 105.748,89.327 C 106.091,88.113 105.92,86.556 105.92,86.556 C 105.566,85.343 104.88,84.65 104.529,83.956 C 104.008,83.091 103.316,81.881 103.144,81.188 C 102.972,80.32 103.316,78.59 103.316,78.59 C 99.675,81.881 96.202,85.342 92.904,88.978 L 92.904,89.153 L 92.905,89.153 z"
   style="fill:#ffffff;fill-opacity:1;fill-rule:evenodd"
   id="path92" />

		<path
   d="M 80.957,104.047 C 80.957,104.047 80.957,105.606 81.3,106.47 C 81.65,107.164 82.514,108.204 83.208,108.897 C 83.725,109.59 84.594,110.106 85.11,111.148 C 85.11,111.148 85.637,112.535 85.637,113.919 C 88.232,109.935 91.004,106.126 93.777,102.49 C 93.777,101.276 93.43,99.719 93.43,99.719 C 93.086,98.679 92.219,97.986 91.701,97.295 C 91.176,96.602 90.317,95.388 90.142,94.696 C 89.788,93.83 89.963,92.269 89.963,92.269 C 86.672,95.91 83.724,99.719 80.78,103.876 L 80.957,104.047 L 80.957,104.047 z"
   style="fill:#ffffff;fill-opacity:1;fill-rule:evenodd"
   id="path94" />

		<path
   d="M 70.907,120.327 C 70.907,120.327 71.254,121.888 71.779,122.581 C 72.122,123.271 73.165,124.311 73.851,124.832 C 74.551,125.349 75.416,125.869 76.109,126.91 C 76.109,126.91 76.801,128.121 76.973,129.505 C 79.056,125.178 81.305,121.02 83.556,117.039 L 83.556,117.21 C 83.385,115.825 82.868,114.439 82.868,114.439 C 82.345,113.402 81.477,112.881 80.961,112.361 C 80.261,111.667 79.228,110.631 78.878,109.937 C 78.532,109.07 78.36,107.511 78.36,107.511 C 75.763,111.494 73.164,115.824 70.906,120.154 L 70.906,120.327 L 70.907,120.327 z"
   style="fill:#ffffff;fill-opacity:1;fill-rule:evenodd"
   id="path96" />

		<path
   d="M 63.292,137.647 C 63.292,137.647 63.811,139.381 64.326,140.073 C 64.849,140.589 66.062,141.456 66.755,141.975 C 67.448,142.324 68.491,142.668 69.178,143.536 C 69.178,143.536 70.05,144.747 70.393,146.13 C 71.957,141.63 73.514,137.125 75.416,132.973 L 75.244,132.973 C 75.072,131.758 74.375,130.372 74.375,130.372 C 73.685,129.506 72.646,128.988 72.128,128.467 C 71.258,127.946 70.22,127.081 69.877,126.39 C 69.352,125.696 69.005,123.966 69.005,123.966 C 66.927,128.468 65.025,132.974 63.292,137.647 L 63.292,137.647 z"
   style="fill:#ffffff;fill-opacity:1;fill-rule:evenodd"
   id="path98" />

		<path
   d="M 57.921,156.005 C 57.921,156.005 58.61,157.563 59.308,158.081 C 59.824,158.602 61.038,159.295 61.909,159.817 C 62.774,160.16 63.811,160.16 64.678,161.025 C 64.678,161.025 65.547,162.067 66.062,163.276 C 66.933,158.773 67.973,154.1 69.359,149.596 L 69.185,149.771 C 68.841,148.557 67.973,147.345 67.973,147.345 C 67.106,146.48 66.237,146.13 65.375,145.787 C 64.678,145.266 63.467,144.572 62.946,143.88 C 62.251,143.364 61.734,141.807 61.734,141.807 C 60.351,146.31 58.964,151.156 57.921,156.005 L 57.921,156.005 z"
   style="fill:#ffffff;fill-opacity:1;fill-rule:evenodd"
   id="path100" />

		<path
   d="M 54.976,174.882 C 54.976,174.882 55.843,176.266 56.709,176.787 C 57.228,177.308 58.617,177.828 59.48,178.002 C 60.351,178.345 61.387,178.345 62.259,179.038 C 62.259,179.038 63.474,179.903 64.16,181.118 C 64.332,176.445 64.857,171.767 65.547,167.089 L 65.376,167.264 C 64.857,166.053 63.818,165.013 63.818,165.013 C 62.947,164.145 61.91,164.145 61.045,163.802 C 60.352,163.452 58.966,162.759 58.441,162.243 C 57.752,161.722 57.055,160.164 57.055,160.164 C 56.014,165.013 55.323,169.859 54.976,174.882 L 54.976,174.882 z"
   style="fill:#ffffff;fill-opacity:1;fill-rule:evenodd"
   id="path102" />

		<path
   d="M 54.646,193.937 C 54.646,193.937 55.682,195.323 56.375,195.666 C 57.065,196.013 58.624,196.359 59.491,196.534 C 60.181,196.706 61.221,196.534 62.258,197.053 C 62.258,197.053 63.645,197.921 64.331,198.957 C 63.987,194.28 63.816,189.606 63.987,184.928 C 63.126,183.891 62.086,183.026 62.086,183.026 C 61.05,182.33 60.011,182.33 59.142,182.158 C 58.277,181.815 56.893,181.466 56.375,180.944 C 55.508,180.6 54.646,179.214 54.646,179.214 C 54.302,184.064 54.302,188.912 54.474,193.937 L 54.646,193.937 L 54.646,193.937 z"
   style="fill:#ffffff;fill-opacity:1;fill-rule:evenodd"
   id="path104" />

		<path
   d="M 56.709,212.986 C 56.709,212.986 57.921,214.026 58.792,214.373 C 59.48,214.715 60.866,214.715 61.734,214.889 C 62.602,214.889 63.646,214.545 64.677,215.064 C 64.677,215.064 66.067,215.585 67.105,216.627 C 66.067,211.946 65.202,207.272 64.677,202.77 C 63.816,201.903 62.601,201.039 62.601,201.039 C 61.56,200.519 60.521,200.691 59.65,200.519 C 58.791,200.519 57.405,200.174 56.708,199.827 C 55.842,199.48 54.804,198.266 54.804,198.266 C 55.152,203.115 55.67,207.967 56.534,212.816 L 56.709,212.986 L 56.709,212.986 z"
   style="fill:#ffffff;fill-opacity:1;fill-rule:evenodd"
   id="path106" />

		<path
   d="M 61.209,231.516 C 61.209,231.516 62.595,232.385 63.467,232.559 C 64.16,232.73 65.547,232.73 66.586,232.73 C 67.276,232.559 68.319,232.212 69.531,232.559 C 69.531,232.559 70.915,232.902 71.958,233.771 C 70.399,229.27 69.014,224.768 67.801,220.258 L 67.801,220.431 C 66.934,219.569 65.547,218.873 65.547,218.873 C 64.332,218.528 63.467,218.873 62.596,218.873 C 61.562,218.873 60.178,218.701 59.481,218.528 C 58.611,218.185 57.401,217.142 57.401,217.142 C 58.441,221.995 59.652,226.667 61.039,231.343 L 61.209,231.516 L 61.209,231.516 z"
   style="fill:#ffffff;fill-opacity:1;fill-rule:evenodd"
   id="path108" />

		<path
   d="M 68.138,249.186 C 68.138,249.186 69.524,250.054 70.394,250.054 C 71.26,250.225 72.648,249.874 73.515,249.7 C 74.377,249.528 75.245,249.013 76.461,249.185 C 76.461,249.185 77.847,249.357 79.058,250.053 C 76.803,245.898 74.901,241.566 73.338,237.238 L 73.338,237.409 C 72.13,236.715 70.743,236.372 70.743,236.372 C 69.525,236.023 68.664,236.542 67.794,236.542 C 66.927,236.715 65.369,236.715 64.678,236.715 C 63.811,236.542 62.424,235.499 62.424,235.499 C 63.983,240.181 65.891,244.682 67.966,249.186 L 68.138,249.186 L 68.138,249.186 z"
   style="fill:#ffffff;fill-opacity:1;fill-rule:evenodd"
   id="path110" />

		<path
   d="M 77.321,265.983 C 77.321,265.983 78.879,266.501 79.748,266.501 C 80.438,266.501 81.82,265.983 82.692,265.812 C 83.557,265.465 84.428,264.772 85.462,264.772 C 85.462,264.772 87.025,264.943 88.236,265.294 C 85.462,261.481 83.035,257.497 80.786,253.513 C 79.576,252.997 78.188,252.823 78.188,252.823 C 76.973,252.652 76.108,253.171 75.237,253.513 C 74.375,253.685 72.991,254.037 72.293,253.861 C 71.428,253.861 69.87,253.171 69.87,253.171 C 72.121,257.498 74.55,261.829 77.145,265.984 L 77.321,265.984 L 77.321,265.983 z"
   style="fill:#ffffff;fill-opacity:1;fill-rule:evenodd"
   id="path112" />

		<path
   d="M 88.578,281.398 C 88.578,281.398 90.136,281.741 91.003,281.571 C 91.693,281.398 93.086,280.88 93.948,280.355 C 94.644,280.011 95.335,279.322 96.545,279.143 C 96.545,279.143 98.104,278.972 99.315,279.322 C 96.202,275.857 93.257,272.221 90.481,268.408 L 90.481,268.58 C 89.273,268.238 87.709,268.238 87.709,268.238 C 86.494,268.238 85.808,268.927 84.937,269.277 C 84.077,269.448 82.692,269.965 81.995,270.137 C 81.127,270.137 79.57,269.621 79.57,269.621 C 82.339,273.606 85.29,277.586 88.407,281.397 L 88.578,281.397 L 88.578,281.398 z"
   style="fill:#ffffff;fill-opacity:1;fill-rule:evenodd"
   id="path114" />

		<path
   d="M 134.646,364.877 C 132.22,366.436 130.833,367.649 130.833,367.649 L 138.287,376.307 L 141.403,371.633 L 134.646,364.877 L 134.646,364.877 z"
   style="fill:#ffffff;fill-opacity:1;fill-rule:evenodd"
   id="path116" />

		<path
   d="M 138.799,360.378 C 145.558,354.837 151.101,362.108 151.101,362.108 L 146.078,366.954 L 138.799,360.378 L 138.799,360.378 z"
   style="fill:#ffffff;fill-opacity:1;fill-rule:evenodd"
   id="path118" />

		<path
   d="M 257.443,367.131 C 259.697,368.862 261.08,370.077 261.08,370.077 L 253.286,378.562 L 250.335,373.707 L 257.443,367.131 L 257.443,367.131 z"
   style="fill:#ffffff;fill-opacity:1;fill-rule:evenodd"
   id="path120" />

		<path
   d="M 253.466,362.604 C 246.876,356.693 241.158,363.817 241.158,363.817 L 245.839,368.862 L 253.466,362.604 L 253.466,362.604 z"
   style="fill:#ffffff;fill-opacity:1;fill-rule:evenodd"
   id="path122" />

		<path
   d="M 240.815,348.079 C 231.979,343.404 227.305,350.155 227.305,350.155 C 232.675,352.753 237.002,358.813 237.002,358.813 L 238.389,361.064 L 238.216,360.894 C 238.216,360.894 245.144,353.448 250.171,358.124 C 248.094,355.349 246.186,352.923 245.144,351.713 C 244.281,350.853 242.723,349.465 240.815,348.079 L 240.815,348.079 z"
   style="fill:#ffffff;fill-opacity:1;fill-rule:evenodd"
   id="path124" />

		<path
   d="M 244.11,345.996 C 249.307,339.938 247.055,332.662 246.186,329.196 L 235.617,334.049 C 235.789,334.568 237.346,337.512 234.405,340.979 C 234.405,340.979 244.629,345.307 244.11,345.996 L 244.11,345.996 z"
   style="fill:#ffffff;fill-opacity:1;fill-rule:evenodd"
   id="path126" />

		<path
   d="M 182.282,351.539 C 181.24,351.721 180.371,351.721 179.331,351.721 C 177.601,351.721 175.697,351.367 174.131,350.678 C 172.748,355.179 162.526,354.14 162.526,354.14 C 166.163,357.606 171.015,360.204 176.214,361.065 L 176.214,360.895 C 176.214,360.895 181.928,359.682 182.103,351.368 L 182.282,351.539 L 182.282,351.539 z"
   style="fill:#ffffff;fill-opacity:1;fill-rule:evenodd"
   id="path128" />

		<path
   d="M 223.5,348.597 C 223.5,348.77 230.599,342.018 235.106,344.094 L 234.065,343.226 C 230.079,340.111 225.056,338.381 220.204,338.208 C 215.874,338.208 208.251,339.42 206.519,342.193 C 206.519,342.193 213.103,343.575 217.259,347.735 C 217.604,348.079 219.343,347.735 223.5,348.597 L 223.5,348.597 z"
   style="fill:#ffffff;fill-opacity:1;fill-rule:evenodd"
   id="path130" />

		<path
   d="M 159.245,354.837 C 157.169,356.22 155.954,357.427 155.954,357.427 L 153.874,359.336 L 154.046,359.336 C 154.046,359.336 147.463,351.539 142.265,356.047 C 144.347,353.448 146.248,350.853 147.463,349.809 C 148.504,348.597 149.889,347.382 151.963,346.349 L 151.273,346.692 C 152.145,346.349 152.831,346.175 153.527,345.824 C 153.528,345.823 154.913,352.406 159.245,354.837 L 159.245,354.837 z"
   style="fill:#ffffff;fill-opacity:1;fill-rule:evenodd"
   id="path132" />

		<path
   d="M 212.592,348.939 C 206.526,343.922 200.461,343.053 195.959,341.668 L 195.959,341.668 L 186.95,347.907 L 197.688,351.539 C 200.983,352.406 201.672,353.965 205.832,356.564 C 205.832,356.564 215.365,351.023 212.592,348.939 L 212.592,348.939 z"
   style="fill:#ffffff;fill-opacity:1;fill-rule:evenodd"
   id="path134" />

		<path
   d="M 231.123,357.948 C 227.654,361.411 221.768,361.755 221.768,361.755 C 217.785,361.937 213.973,361.411 209.29,358.639 C 209.29,358.639 217.089,353.279 216.741,350.678 C 218.645,351.024 224.189,352.063 225.581,351.024 C 225.581,351.023 227.482,355.697 231.123,357.948 L 231.123,357.948 z"
   style="fill:#ffffff;fill-opacity:1;fill-rule:evenodd"
   id="path136" />

		<path
   d="M 185.217,351.023 L 185.392,350.852 L 189.891,351.889 C 198.041,353.964 199.424,355.178 199.424,355.178 C 199.424,355.178 190.244,363.836 182.094,361.754 C 182.094,361.754 188.162,357.254 185.392,350.852 L 185.217,351.023 L 185.217,351.023 z"
   style="fill:#ffffff;fill-opacity:1;fill-rule:evenodd"
   id="path138" />

		<path
   d="M 243.071,326.777 C 243.071,326.777 243.412,325.737 243.586,324.869 C 243.766,324.179 244.11,323.136 243.938,322.268 C 243.938,321.407 243.243,320.709 243.586,319.676 C 243.586,319.676 244.454,317.078 245.324,316.035 C 240.815,317.594 234.405,320.017 230.247,322.267 C 229.207,322.791 228.345,323.311 228.345,323.311 C 227.82,324.349 227.649,325.211 227.649,326.08 C 227.649,326.949 227.477,328.334 227.477,329.195 C 227.477,331.278 225.574,334.048 225.574,334.048 C 230.423,333.18 236.661,330.41 240.644,327.985 L 243.071,326.777 L 243.071,326.777 z"
   style="fill:#ffffff;fill-opacity:1;fill-rule:evenodd"
   id="path140" />

		<path
   d="M 216.917,323.656 C 221.073,320.196 224.531,318.979 227.306,319.67 C 236.838,315.687 238.397,315.343 238.397,315.343 C 234.755,311.013 230.942,310.323 224.362,310.493 C 221.417,310.669 212.409,313.956 211.022,315.864 L 216.917,323.656 L 216.917,323.656 z"
   style="fill:#ffffff;fill-opacity:1;fill-rule:evenodd"
   id="path142" />

		<path
   d="M 216.924,323.656 C 216.924,323.656 209.463,317.767 211.718,315.167 L 216.924,323.656 L 216.924,323.656 z"
   style="fill:#ffffff;fill-opacity:1;fill-rule:evenodd"
   id="path144" />

		<path
   d="M 167.904,350.155 C 168.943,349.808 169.983,348.939 170.331,348.596 L 170.502,348.596 C 166.861,345.823 164.612,341.322 164.612,336.475 C 158.024,335.607 156.637,328.163 156.637,328.163 C 155.598,330.76 155.079,333.351 155.079,336.297 C 155.079,341.321 156.464,346.17 159.063,350.154 L 159.238,350.154 C 159.239,350.155 164.263,351.194 167.904,350.155 L 167.904,350.155 z"
   style="fill:#ffffff;fill-opacity:1;fill-rule:evenodd"
   id="path146" />

		<path
   d="M 158.542,324.179 C 158.542,324.179 160.106,331.971 165.301,332.313 C 166.345,329.027 170.673,325.213 173.446,323.313 L 174.485,322.098 C 173.618,315.694 176.565,312.051 176.565,312.051 L 173.618,312.749 C 167.379,314.478 161.837,318.81 158.542,324.179 L 158.542,324.179 z"
   style="fill:#ffffff;fill-opacity:1;fill-rule:evenodd"
   id="path148" />

		<path
   d="M 182.448,312.92 C 183.31,311.707 184.874,312.227 185.915,312.051 C 191.631,311.365 199.599,315.167 201.159,318.81 L 198.558,320.71 C 196.484,322.616 193.361,322.965 193.361,322.965 L 191.976,322.442 C 190.246,321.754 187.473,321.408 185.393,321.408 C 183.488,321.408 181.233,320.887 179.504,321.579 C 177.25,319.326 182.448,312.92 182.448,312.92 L 182.448,312.92 z"
   style="fill:#ffffff;fill-opacity:1;fill-rule:evenodd"
   id="path150" />

		<path
   d="M 207.904,333.878 C 207.037,334.222 212.587,336.126 221.243,334.912 L 221.243,334.739 C 221.243,334.739 222.459,333.528 222.809,332.839 C 222.981,332.143 223.67,330.411 223.67,329.55 C 223.841,328.68 224.023,328.164 224.023,326.949 C 224.023,326.949 224.023,325.909 224.538,324.869 C 223.5,325.39 218.299,327.121 218.299,327.121 C 216.917,327.468 215.874,327.639 215.874,327.639 C 215.183,328.164 214.487,328.854 213.973,329.369 C 213.448,329.723 212.414,330.584 211.374,331.623 C 210.85,331.971 208.251,333.528 207.904,333.878 L 207.904,333.878 z"
   style="fill:#ffffff;fill-opacity:1;fill-rule:evenodd"
   id="path152" />

		<path
   d="M 188.169,334.912 C 188.169,334.912 187.471,334.912 188.34,331.107 C 188.515,330.064 188.858,329.369 189.207,328.506 C 189.553,327.809 189.897,326.777 190.765,325.736 C 190.765,325.736 189.553,326.427 190.765,325.736 L 189.03,325.908 C 184.183,325.389 181.757,325.04 177.249,324.178 C 176.037,324.178 177.249,324.178 177.249,324.178 C 175.865,324.523 173.789,325.908 173.265,326.777 C 172.921,327.467 172.223,327.809 171.706,328.335 C 171.192,328.854 169.977,330.411 169.977,330.411 C 174.65,332.491 183.487,335.092 188.169,334.912 L 188.169,334.912 z"
   style="fill:#ffffff;fill-opacity:1;fill-rule:evenodd"
   id="path154" />

		<path
   d="M 213.979,325.563 C 213.979,325.563 207.74,320.368 208.781,316.554 C 201.845,322.792 199.076,325.908 193.361,325.908 C 191.798,326.08 193.009,325.908 193.009,325.908 C 192.319,326.776 191.975,327.984 191.625,328.852 C 191.45,329.721 191.106,330.582 191.106,331.451 C 190.934,333.87 191.106,334.566 191.106,334.566 C 197.517,334.911 196.992,335.085 202.886,333.527 C 202.886,333.527 206.872,332.141 210.684,328.328 C 211.38,327.81 213.281,326.252 213.979,325.563 L 213.979,325.563 z"
   style="fill:#ffffff;fill-opacity:1;fill-rule:evenodd"
   id="path156" />

		<path
   d="M 190.595,340.281 C 183.488,337.69 173.79,336.822 168.59,338.896 L 169.805,341.322 L 173.44,346.171 L 177.601,345.823 C 177.601,345.823 180.719,345.823 183.144,347.039 C 183.145,347.039 189.725,340.11 190.595,340.281 L 190.595,340.281 z"
   style="fill:#ffffff;fill-opacity:1;fill-rule:evenodd"
   id="path158" />

		<polygon
   points="255.366,366.092 254.498,365.05 247.564,371.109 248.431,372.149 255.366,366.092 "
   style="fill:#ffffff;fill-opacity:1;fill-rule:evenodd"
   id="polygon160" />

		<polygon
   points="142.961,369.897 143.829,368.862 137.247,362.623 136.38,363.666 142.961,369.897 "
   style="fill:#ffffff;fill-opacity:1;fill-rule:evenodd"
   id="polygon162" />

	</g>

</g>
  </g>
</svg>
