<?xml version="1.0" encoding="utf-8"?>
<!-- Generator: Adobe Illustrator 18.1.1, SVG Export Plug-In . SVG Version: 6.00 Build 0)  -->
<svg version="1.1" id="Layer_1" xmlns="http://www.w3.org/2000/svg" xmlns:xlink="http://www.w3.org/1999/xlink" x="0px" y="0px"
	 viewBox="0 0 72 72" enable-background="new 0 0 72 72" xml:space="preserve">
<g>
	<g>
		<g>
			<rect x="19" y="19" fill="none" width="36" height="36"/>
		</g>
		<path fill="#FFFFFF" d="M20.5,47.4c2.9,1.8,6.3,3.3,10.9,3.1c11.2-0.5,18.7-8.5,18.8-20.3c1.2-1,2.6-2.2,3.3-3.6
			c-1,0.5-2.3,0.9-3.7,1c1.3-0.9,2.3-2.1,2.8-3.7c-1.3,0.7-2.7,1.3-4.3,1.6c-3.9-4.8-13.4-0.9-11.7,6.2c-6.6-0.4-10.7-3.4-14-7.1
			c-1.9,3.1-0.2,7.8,2,9.1c-1.2-0.1-2.1-0.4-2.9-0.8c0.1,3.9,2.3,5.8,5.3,6.8c-0.9,0.2-1.9,0.2-2.9,0.1c0.9,2.7,2.9,4.4,6.3,4.8
			C28.1,46.5,23.9,47.9,20.5,47.4z"/>
	</g>
</g>
</svg>
